<?xml version="1.0" standalone="no"?>
<!DOCTYPE svg PUBLIC "-//W3C//DTD SVG 20010904//EN"
 "http://www.w3.org/TR/2001/REC-SVG-20010904/DTD/svg10.dtd">
<svg version="1.0" xmlns="http://www.w3.org/2000/svg"
 width="500.000000pt" height="500.000000pt" viewBox="0 0 500.000000 500.000000"
 preserveAspectRatio="xMidYMid meet">

<g transform="translate(0.000000,500.000000) scale(0.100000,-0.100000)"
fill="#000000" stroke="none">
<path d="M0 2500 l0 -2500 2500 0 2500 0 0 2500 0 2500 -2500 0 -2500 0 0
-2500z m1202 460 c56 -16 119 -69 147 -125 l26 -49 0 -291 0 -290 -28 -48
c-33 -56 -89 -99 -149 -116 -30 -9 -125 -11 -318 -9 l-275 3 -48 28 c-56 33
-99 89 -116 149 -9 30 -11 124 -9 313 l3 270 28 47 c31 54 76 91 133 112 48
18 546 22 606 6z m658 -231 c0 -22 -32 -83 -110 -208 -60 -98 -110 -181 -110
-184 0 -4 50 -7 110 -7 l110 0 0 -30 0 -30 -175 0 -175 0 0 33 c0 24 29 76
114 207 l113 175 -99 3 -98 3 0 34 0 35 160 0 160 0 0 -31z m265 14 c18 -46
165 -462 165 -467 0 -3 -22 -6 -49 -6 l-49 0 -24 73 -25 72 -66 3 -65 3 -28
-76 c-28 -72 -30 -75 -61 -75 -18 0 -33 3 -33 6 0 3 35 114 77 245 l77 239 37
0 c26 0 39 -5 44 -17z m452 0 c50 -23 73 -66 73 -133 0 -103 -54 -150 -174
-150 l-66 0 0 -95 0 -95 -40 0 -40 0 0 245 0 245 106 0 c78 0 115 -4 141 -17z
m213 -198 l0 -215 95 0 95 0 0 -30 0 -30 -140 0 -140 0 0 245 0 245 45 0 45 0
0 -215z m540 180 l0 -35 -105 0 -106 0 3 -67 3 -68 78 -3 77 -3 0 -29 0 -30
-80 0 -81 0 3 -77 3 -78 103 -3 102 -3 0 -29 0 -30 -145 0 -145 0 0 245 0 245
145 0 145 0 0 -35z m307 -82 c22 -65 62 -175 87 -245 l45 -128 -54 0 -53 0
-24 73 -25 72 -64 0 -63 0 -27 -70 -27 -70 -42 -3 c-32 -2 -41 0 -38 10 3 7
40 118 82 246 l78 232 41 0 42 0 42 -117z m420 97 c43 -26 63 -68 63 -133 0
-55 -26 -107 -53 -107 -7 0 -18 -4 -26 -9 -10 -7 3 -33 58 -115 l71 -106 -52
0 -53 0 -70 110 c-94 147 -105 147 -105 0 l0 -110 -45 0 -45 0 0 245 0 245
113 0 c93 0 117 -3 144 -20z m333 -143 l105 -162 3 163 2 162 35 0 35 0 0
-245 0 -245 -37 0 c-38 0 -38 1 -153 175 -63 96 -118 175 -122 175 -5 0 -8
-79 -8 -175 l0 -175 -30 0 -30 0 0 245 0 245 48 0 47 0 105 -163z"/>
<path d="M622 2757 c-19 -20 -22 -35 -22 -104 0 -79 -1 -82 -30 -103 -19 -14
-30 -30 -30 -45 0 -15 11 -33 30 -47 29 -21 30 -24 30 -103 0 -72 3 -84 23
-103 14 -13 36 -22 56 -22 29 0 32 2 29 28 -2 21 -9 28 -30 30 -28 3 -28 3
-28 85 0 69 -3 84 -22 104 l-21 23 21 23 c19 20 22 35 22 109 l0 87 28 3 c21
2 28 9 30 31 3 25 1 27 -31 27 -22 0 -41 -8 -55 -23z"/>
<path d="M1102 2753 c2 -22 9 -29 31 -31 27 -3 27 -3 27 -85 0 -74 2 -83 27
-109 l27 -28 -27 -28 c-24 -25 -27 -35 -27 -104 0 -76 0 -77 -27 -80 -22 -2
-29 -9 -31 -30 -3 -26 -1 -28 36 -28 64 0 82 29 82 128 0 79 1 81 30 99 51 30
51 66 0 97 -29 17 -30 19 -30 100 0 73 -3 85 -23 104 -15 15 -36 22 -61 22
-35 0 -37 -2 -34 -27z"/>
<path d="M784 2716 c-3 -8 -4 -23 -2 -33 3 -15 15 -18 86 -21 45 -2 82 -5 82
-8 0 -2 -40 -67 -90 -143 -71 -110 -90 -147 -90 -176 l0 -36 153 3 152 3 3 32
3 32 -104 3 -103 3 98 155 c60 93 98 162 96 175 -3 19 -11 20 -141 23 -113 2
-138 0 -143 -12z"/>
<path d="M2050 2564 c-11 -36 -20 -70 -20 -75 0 -5 21 -9 46 -9 35 0 45 3 41
14 -3 8 -11 41 -18 75 -6 34 -15 61 -20 61 -4 0 -17 -30 -29 -66z"/>
<path d="M2410 2610 l0 -80 49 0 c67 0 96 24 96 80 0 56 -29 80 -96 80 l-49 0
0 -80z"/>
<path d="M3520 2561 c-11 -37 -20 -73 -20 -80 0 -6 18 -11 45 -11 25 0 45 3
45 8 1 22 -35 152 -41 152 -5 0 -17 -31 -29 -69z"/>
<path d="M3890 2620 l0 -70 29 0 c49 0 89 20 99 48 19 55 -16 92 -87 92 l-41
0 0 -70z"/>
</g>
</svg>
